<?xml version="1.0" encoding="UTF-8"?>
<svg xmlns="http://www.w3.org/2000/svg" style="display: none;">
    <symbol viewBox="0 0 24 24" id="project-list">
        <title>My projects</title>
        <g fill="none" fill-rule="evenodd">
            <path d="M0 0h24v24H0z"></path>
            <path d="M8 3v.5A1.5 1.5 0 0 0 9.5 5h5A1.5 1.5 0 0 0 16 3.5V3h2a2 2 0 0 1 2 2v16a2 2 0 0 1-2 2H6a2 2 0 0 1-2-2V5a2 2 0 0 1 2-2h2z" fill="#000" opacity=".3"></path>
            <path d="M11 2a1 1 0 0 1 2 0h1.5a.5.5 0 0 1 .5.5v1a.5.5 0 0 1-.5.5h-5a.5.5 0 0 1-.5-.5v-1a.5.5 0 0 1 .5-.5H11z" fill="#000"></path>
            <rect fill="#000" opacity=".3" x="10" y="9" width="7" height="2" rx="1"></rect>
            <rect fill="#000" opacity=".3" x="7" y="9" width="2" height="2" rx="1"></rect>
            <rect fill="#000" opacity=".3" x="7" y="13" width="2" height="2" rx="1"></rect>
            <rect fill="#000" opacity=".3" x="10" y="13" width="7" height="2" rx="1"></rect>
            <rect fill="#000" opacity=".3" x="7" y="17" width="2" height="2" rx="1"></rect>
            <rect fill="#000" opacity=".3" x="10" y="17" width="7" height="2" rx="1"></rect>
        </g>
    </symbol>
    <symbol xmlns="http://www.w3.org/2000/svg" viewBox="0 0 144 144" id="ceilings">
        <title>icon</title>
        <path d="M108.58 41h5.84a2.57 2.57 0 0 1 2.58 2.58v12.55a2.58 2.58 0 0 1-4 2.15l-5.85-3.84a2.57 2.57 0 0 1-1.15-2.15v-8.71a2.57 2.57 0 0 1 2.58-2.58zM56 72h11v11H56zm23 0h11v11H79zM56 93h11v11H56zm23 0h11v11H79z"></path>
        <path d="M72.83 44.2L15 83.52a2.57 2.57 0 0 1-4-2.13v-3.47a2.57 2.57 0 0 1 1.12-2.12l59.23-40.38a2.58 2.58 0 0 1 2.9 0l59.39 40.38a2.6 2.6 0 0 1 1.13 2.2l-.07 3.47a2.58 2.58 0 0 1-4 2.08z"></path>
    </symbol>

    <symbol id="constructionDetails" viewBox="0 0 512 512">
        <title>constructionDetails</title>
        <path fill="currentcolor" class="cc-item-icon" d="M442.05,512.43H72.11A70.46,70.46,0,0,1,1.73,442.05V72.11A70.46,70.46,0,0,1,72.11,1.73H442.05a70.46,70.46,0,0,1,70.38,70.38V442.05A70.46,70.46,0,0,1,442.05,512.43ZM72.11,69.73a2.39,2.39,0,0,0-2.38,2.38V442.05a2.39,2.39,0,0,0,2.38,2.38H442.05a2.39,2.39,0,0,0,2.38-2.38V72.11a2.39,2.39,0,0,0-2.38-2.38Zm98.24,97.06v-38a15,15,0,0,0-15-15h-38a15,15,0,0,0-15,15v38a15,15,0,0,0,15,15h38A15,15,0,0,0,170.35,166.79Zm241,0v-38a15,15,0,0,0-15-15h-188a15,15,0,0,0-15,15v38a15,15,0,0,0,15,15h188A15,15,0,0,0,411.3,166.79Zm-242.95,107v-38a15,15,0,0,0-15-15h-38a15,15,0,0,0-15,15v38a15,15,0,0,0,15,15h38A15,15,0,0,0,168.35,273.79Zm241,0v-38a15,15,0,0,0-15-15h-188a15,15,0,0,0-15,15v38a15,15,0,0,0,15,15h188A15,15,0,0,0,409.3,273.79Zm-240.95,107v-38a15,15,0,0,0-15-15h-38a15,15,0,0,0-15,15v38a15,15,0,0,0,15,15h38A15,15,0,0,0,168.35,380.79Zm241,0v-38a15,15,0,0,0-15-15h-188a15,15,0,0,0-15,15v38a15,15,0,0,0,15,15h188A15,15,0,0,0,409.3,380.79Z"/>        
    </symbol>

    <symbol xmlns="http://www.w3.org/2000/svg" viewBox="0 0 512 512" id="constructionFeatureOverview">
        <title>icon</title>
        <g><path fill="currentcolor" d="M478.23,500.39H33.75a22.5,22.5,0,0,1-22.5-22.5V33.42a22.5,22.5,0,0,1,22.5-22.5H478.23a22.5,22.5,0,0,1,22.5,22.5V477.89A22.5,22.5,0,0,1,478.23,500.39Zm-422-45H455.73V55.92H56.25ZM374.56,267.44c-17.2-7-33.81.38-41.33,13.6a4.29,4.29,0,0,1-3.74,2.13h-1.66a4.53,4.53,0,0,1-4.53-4.54V202a4.53,4.53,0,0,0-4.53-4.53H256.22a4.35,4.35,0,0,1-4.35-4.34h0a4.29,4.29,0,0,1,2.13-3.74c13.21-7.53,20.58-24.13,13.6-41.33a29.66,29.66,0,0,0-16.8-16.41c-23.07-8.91-44.9,7.87-44.9,29.75a32.2,32.2,0,0,0,16.16,27.92,4.39,4.39,0,0,1,2.25,3.8h0a4.34,4.34,0,0,1-4.34,4.34H143.1a4.53,4.53,0,0,0-4.53,4.53V264.5a4.34,4.34,0,0,0,4.34,4.35h0a4.29,4.29,0,0,0,3.73-2.13c7.53-13.21,24.13-20.58,41.33-13.6a29.63,29.63,0,0,1,16.41,16.8c8.91,23.07-7.87,44.9-29.75,44.9a32.2,32.2,0,0,1-27.92-16.16,4.39,4.39,0,0,0-3.8-2.25h0a4.34,4.34,0,0,0-4.34,4.34v76.87a4.53,4.53,0,0,0,4.53,4.53H220a4.34,4.34,0,0,0,4.34-4.34v-.1a4.47,4.47,0,0,0-2.22-3.89c-13.15-7.55-20.47-24.12-13.5-41.27,2.64-6.5,10.26-13.9,16.79-16.42,23.07-8.91,44.9,7.87,44.9,29.75a32.19,32.19,0,0,1-16.15,27.92,4.42,4.42,0,0,0-2.26,3.82v.19a4.34,4.34,0,0,0,4.35,4.34h62.55a4.53,4.53,0,0,0,4.53-4.53V315.25a4.53,4.53,0,0,1,4.53-4.53h1.66A4.41,4.41,0,0,1,333.3,313a32.16,32.16,0,0,0,27.92,16.16c21.88,0,38.66-21.83,29.75-44.9A29.67,29.67,0,0,0,374.56,267.44Z"/></g>        
    </symbol>
    <symbol xmlns="http://www.w3.org/2000/svg" viewBox="0 0 512 512" id="constructionProfile">
        <title>Construction Profile</title>
        <g><path fill="currentcolor" d="M487.46,308.58c16.5,42.73-14.58,83.16-55.1,83.16a59.57,59.57,0,0,1-51.7-29.94,8.17,8.17,0,0,0-7.05-4.16h-3.08a8.39,8.39,0,0,0-8.39,8.39v115.5a8.39,8.39,0,0,1-8.39,8.39H237.9a8,8,0,0,1-8-8v-.35a8.2,8.2,0,0,1,4.18-7.08A59.57,59.57,0,0,0,264,422.76c0-40.53-40.43-71.61-83.15-55.11-12.11,4.68-26.22,18.38-31.1,30.4-12.91,31.78.65,62.46,25,76.44a8.3,8.3,0,0,1,4.11,7.21v.18a8,8,0,0,1-8,8H28.41A8.39,8.39,0,0,1,20,481.53V339.17a8.05,8.05,0,0,1,8.05-8.05h0a8.16,8.16,0,0,1,7.05,4.17,59.58,59.58,0,0,0,51.7,29.93c40.53,0,71.61-40.43,55.11-83.15A54.91,54.91,0,0,0,111.54,251C79.7,238,48.94,251.68,35,276.15a7.94,7.94,0,0,1-6.92,3.94h0a8,8,0,0,1-8-8V156.2a8.4,8.4,0,0,1,8.39-8.4H170.77a8,8,0,0,0,8-8h0a8.14,8.14,0,0,0-4.17-7A59.6,59.6,0,0,1,144.72,81c0-40.53,40.43-71.61,83.16-55.11A54.92,54.92,0,0,1,259,56.31c12.93,31.84-.71,62.6-25.19,76.53a8,8,0,0,0-3.93,6.92h0a8,8,0,0,0,8,8H353.75a8.4,8.4,0,0,1,8.39,8.4v142a8.39,8.39,0,0,0,8.39,8.39h3.08a7.94,7.94,0,0,0,6.92-3.94c13.93-24.47,44.68-38.12,76.53-25.18A54.88,54.88,0,0,1,487.46,308.58Z"/></g>        
    </symbol>
    <symbol xmlns="http://www.w3.org/2000/svg" viewBox="0 0 512 512" id="dataSource">
        <title>Data Source</title>
        <path fill="currentcolor" d="M217.48,266.09l-19.65-19.64,24.59-24.59a4,4,0,0,1,5.68,0l14,14a4,4,0,0,1,0,5.68ZM294,293.39a4,4,0,0,0,0-5.68l-14-14a4,4,0,0,0-5.68,0l-24.59,24.59L269.36,318ZM395.6,172.85l-56.32-56.31a15.57,15.57,0,0,0-11-4.56H275a15.58,15.58,0,0,0-11,4.56l-39,39a15.57,15.57,0,0,0,0,22L336.86,289.39a15.58,15.58,0,0,0,22,0l36.75-36.75a15.59,15.59,0,0,0,4.56-11l0-57.77A15.56,15.56,0,0,0,395.6,172.85ZM360,100.73l-12.62,12.61L401.05,167l12.62-12.62a6.72,6.72,0,0,0,0-9.5l-44.16-44.15A6.71,6.71,0,0,0,360,100.73Zm70.51-37.07-43,43,20.21,20.21,43-43a4,4,0,0,0,0-5.66L436.19,63.66A4,4,0,0,0,430.52,63.66ZM112.3,348l56.32,56.32a15.57,15.57,0,0,0,11,4.56h53.28a15.59,15.59,0,0,0,11-4.56l39-39a15.58,15.58,0,0,0,0-22L171,231.5a15.58,15.58,0,0,0-22,0l-36.75,36.75a15.58,15.58,0,0,0-4.56,11l0,57.76A15.53,15.53,0,0,0,112.3,348Zm35.59,72.13,12.62-12.62-53.66-53.65L94.23,366.5a6.74,6.74,0,0,0,0,9.51l44.16,44.15A6.71,6.71,0,0,0,147.89,420.16Zm-69.8,36.36,43-43L100.9,393.28l-43,43a4,4,0,0,0,0,5.67l14.54,14.55A4,4,0,0,0,78.09,456.52Z" ></path>
    </symbol>

    <symbol id="dimensions"  viewBox="0 0 512 512">
        <title>floorLevels</title>
        <!--path fill="currentcolor" d="M431.58,72.17l-38.76,38.76,17.41,17.41a8.46,8.46,0,0,1,0,12h0a8.47,8.47,0,0,1-12,0L380.84,122.9l-26,26,17.41,17.41a8.46,8.46,0,0,1,0,12h0a8.47,8.47,0,0,1-12,0l-17.41-17.41-26.45,26.46,17.41,17.41a8.47,8.47,0,0,1,0,12h0a8.47,8.47,0,0,1-12,0l-17.41-17.41-26,26,17.41,17.41a8.47,8.47,0,0,1,0,12h0a8.47,8.47,0,0,1-12,0l-17.41-17.41-25.12,25.12,17.41,17.42a8.46,8.46,0,0,1-12,12l-17.42-17.41-26,26,17.41,17.41a8.47,8.47,0,0,1-12,12l-17.42-17.41L165,338.77l17.41,17.41a8.47,8.47,0,0,1-12,12L153,350.74l-26,26,17.41,17.41a8.47,8.47,0,0,1-12,12L115,388.7,74.88,428.87a3.92,3.92,0,0,0,2.78,6.7H434.35a3.93,3.93,0,0,0,3.93-3.93V74.94A3.92,3.92,0,0,0,431.58,72.17ZM371.85,367.71a1.43,1.43,0,0,1-1.43,1.43h-130a1.43,1.43,0,0,1-1-2.44l130-130a1.43,1.43,0,0,1,2.44,1Z"/-->
        <g>
            <path fill="currentcolor"  d="M420,61.3V95.48a4.62,4.62,0,0,1-4.62,4.62H287.74a5,5,0,0,1-5-5V61.63a52.4,52.4,0,0,1,52.4-52.4H368A52.07,52.07,0,0,1,420,61.3ZM415,129.09H288.42a5.36,5.36,0,0,0-5.36,5.37V384.87a5.36,5.36,0,0,0,5.36,5.36H415a5.36,5.36,0,0,0,5.37-5.36V134.46A5.36,5.36,0,0,0,415,129.09ZM354.72,501l63.54-77.36a2.4,2.4,0,0,0-1.86-3.93H289.32a2.4,2.4,0,0,0-1.86,3.93L351,501A2.41,2.41,0,0,0,354.72,501ZM211.21,8.74H107.27A16.66,16.66,0,0,0,90.61,25.4V64.21a2.89,2.89,0,0,0,2.9,2.89h37.38a2.9,2.9,0,0,1,2.9,2.9v32.86a2.9,2.9,0,0,1-2.9,2.9H93.51a2.9,2.9,0,0,0-2.9,2.9v40.39a2.9,2.9,0,0,0,2.9,2.9h59.6a2.9,2.9,0,0,1,2.9,2.9V187.7a2.9,2.9,0,0,1-2.9,2.9H93.51a2.9,2.9,0,0,0-2.9,2.9v40.4a2.89,2.89,0,0,0,2.9,2.89h37.38a2.9,2.9,0,0,1,2.9,2.9v32.86a2.9,2.9,0,0,1-2.9,2.9H93.51a2.9,2.9,0,0,0-2.9,2.9v40.39a2.9,2.9,0,0,0,2.9,2.9h59.6a2.9,2.9,0,0,1,2.9,2.9v32.85a2.9,2.9,0,0,1-2.9,2.9H93.51a2.9,2.9,0,0,0-2.9,2.9v40.4a2.9,2.9,0,0,0,2.9,2.9h37.38a2.89,2.89,0,0,1,2.9,2.89v32.86a2.9,2.9,0,0,1-2.9,2.9H93.51a2.9,2.9,0,0,0-2.9,2.9v38.8a16.66,16.66,0,0,0,16.66,16.66H211.21a16.66,16.66,0,0,0,16.66-16.66V25.4A16.66,16.66,0,0,0,211.21,8.74Z"/>
        </g>
    </symbol>


    <symbol id="Basement"  viewBox="0 0 512 512">
        <title>Basement</title>
        <path fill="currentcolor" d="M403.11,93.26,91.4,405a3.43,3.43,0,0,0,2.43,5.86h311.7a3.44,3.44,0,0,0,3.44-3.44V95.69A3.43,3.43,0,0,0,403.11,93.26ZM350.92,351.52a1.25,1.25,0,0,1-1.25,1.26H236.07a1.26,1.26,0,0,1-.89-2.14L348.78,237a1.26,1.26,0,0,1,2.14.89ZM367.5,137.16l12.44,12.44m-33.17,33.17-12.44-12.44M313.6,215.94,301.16,203.5M268,236.67l12.44,12.44m-33.17,33.18-12.44-12.44M201.64,303l12.44,12.44m-45.61,20.73,12.44,12.44M135.3,369.36l12.44,12.44" style="fill:none;stroke:#1a1a1a;stroke-linecap:round;stroke-miterlimit:10;stroke-width:10px"/>
    </symbol>

     <symbol id="FirstFloor"  viewBox="0 0 512 512">
        <title>FirstFloor</title>
        <path fill="currentcolor" d="M403.11,93.26,91.4,405a3.43,3.43,0,0,0,2.43,5.86h311.7a3.44,3.44,0,0,0,3.44-3.44V95.69A3.43,3.43,0,0,0,403.11,93.26ZM350.92,351.52a1.25,1.25,0,0,1-1.25,1.26H236.07a1.26,1.26,0,0,1-.89-2.14L348.78,237a1.26,1.26,0,0,1,2.14.89ZM367.5,137.16l12.44,12.44m-33.17,33.17-12.44-12.44M313.6,215.94,301.16,203.5M268,236.67l12.44,12.44m-33.17,33.18-12.44-12.44M201.64,303l12.44,12.44m-45.61,20.73,12.44,12.44M135.3,369.36l12.44,12.44" style="fill:none;stroke:#1a1a1a;stroke-linecap:round;stroke-miterlimit:10;stroke-width:10px"/>
    </symbol>

     <symbol id="SecondFloor"  viewBox="0 0 512 512">
        <title>secondFloor</title>
        <path fill="currentcolor" d="M403.11,93.26,91.4,405a3.43,3.43,0,0,0,2.43,5.86h311.7a3.44,3.44,0,0,0,3.44-3.44V95.69A3.43,3.43,0,0,0,403.11,93.26ZM350.92,351.52a1.25,1.25,0,0,1-1.25,1.26H236.07a1.26,1.26,0,0,1-.89-2.14L348.78,237a1.26,1.26,0,0,1,2.14.89ZM367.5,137.16l12.44,12.44m-33.17,33.17-12.44-12.44M313.6,215.94,301.16,203.5M268,236.67l12.44,12.44m-33.17,33.18-12.44-12.44M201.64,303l12.44,12.44m-45.61,20.73,12.44,12.44M135.3,369.36l12.44,12.44" style="fill:none;stroke:#1a1a1a;stroke-linecap:round;stroke-miterlimit:10;stroke-width:10px"/>
    </symbol>

     <symbol id="ThirdFloor"  viewBox="0 0 512 512">
        <title>thirdFloor</title>
        <path fill="currentcolor" d="M403.11,93.26,91.4,405a3.43,3.43,0,0,0,2.43,5.86h311.7a3.44,3.44,0,0,0,3.44-3.44V95.69A3.43,3.43,0,0,0,403.11,93.26ZM350.92,351.52a1.25,1.25,0,0,1-1.25,1.26H236.07a1.26,1.26,0,0,1-.89-2.14L348.78,237a1.26,1.26,0,0,1,2.14.89ZM367.5,137.16l12.44,12.44m-33.17,33.17-12.44-12.44M313.6,215.94,301.16,203.5M268,236.67l12.44,12.44m-33.17,33.18-12.44-12.44M201.64,303l12.44,12.44m-45.61,20.73,12.44,12.44M135.3,369.36l12.44,12.44" style="stroke:#1a1a1a;stroke-linecap:round;stroke-miterlimit:10;stroke-width:10px"/>
    </symbol>

    <symbol xmlns="http://www.w3.org/2000/svg" viewBox="0 0 512 512" id="outdoorDesignConditions">
        <title>icon</title>
        <path fill="currentcolor" d="M180.55,508.36c-51.54,0-93.48-44.28-93.48-98.69,0-42.86,26.13-80,63.23-93.38,4-69.55,58.63-124.85,125.23-124.85,31.9,0,62.3,12.7,85.6,35.76a134.36,134.36,0,0,1,35.4,62q4.23-.36,8.51-.36c57.17,0,103.68,49.18,103.68,109.63S462.21,508.09,405,508.09c-2.91,0-5.87-.14-8.83-.4H191.27A89.42,89.42,0,0,1,180.55,508.36Zm95-273.92c-45.47,0-82.47,40.37-82.47,90,0,2.36.09,4.75.26,7.09a21.5,21.5,0,0,1-18.7,22.85c-25.39,3.28-44.55,27.05-44.55,55.29,0,30.71,22.65,55.69,50.48,55.69a45.88,45.88,0,0,0,6.46-.48,21,21,0,0,1,3.54-.2H397.23c.72,0,1.44,0,2.16.11,1.9.19,3.81.29,5.65.29,33.46,0,60.68-29.89,60.68-66.63S438.5,331.83,405,331.83a55.6,55.6,0,0,0-18.72,3.24,21.51,21.51,0,0,1-28.65-18.55C354,270.5,317.92,234.44,275.53,234.44ZM162.64,219.1c24.11-30.82,54.93-41.24,66.3-44.91A145.4,145.4,0,0,1,295.57,169a5.53,5.53,0,0,0,6.05-7.38C294.85,143.13,275,102.25,228,86.67c-44.62-14.81-94.23-.34-123.79,34.05C69,161.64,78,212.38,80,222c7.82,38.9,32.26,63.11,46.19,74.22a5.54,5.54,0,0,0,9-4C136.26,275.41,141.35,246.31,162.64,219.1ZM200.86,38.89V18.4A16.39,16.39,0,0,0,184.47,2h0a16.4,16.4,0,0,0-16.4,16.4V38.89a16.4,16.4,0,0,0,16.4,16.4h0A16.39,16.39,0,0,0,200.86,38.89ZM39.17,178.4H18.68a16.4,16.4,0,0,0-16.4,16.4h0a16.4,16.4,0,0,0,16.4,16.4H39.17a16.39,16.39,0,0,0,16.39-16.4h0A16.39,16.39,0,0,0,39.17,178.4ZM122,56,111.79,38.22a16.39,16.39,0,0,0-22.4-6h0a16.4,16.4,0,0,0-6,22.4L93.63,72.36a16.4,16.4,0,0,0,22.4,6h0A16.39,16.39,0,0,0,122,56ZM65.86,102.57,48,92.59a16.41,16.41,0,0,0-22.31,6.35h0A16.39,16.39,0,0,0,32,121.24l17.9,10a16.4,16.4,0,0,0,22.31-6.34h0A16.4,16.4,0,0,0,65.86,102.57Zm261.81,28.66L345.41,121a16.39,16.39,0,0,0,6-22.4h0a16.39,16.39,0,0,0-22.4-6l-17.74,10.25a16.39,16.39,0,0,0-6,22.4h0A16.39,16.39,0,0,0,327.67,131.23ZM281.06,65.64l10-17.9a16.4,16.4,0,0,0-6.34-22.31h0a16.4,16.4,0,0,0-22.31,6.34l-10,17.9A16.4,16.4,0,0,0,258.75,72h0A16.4,16.4,0,0,0,281.06,65.64Zm-238.91,232,17.2-11.14a16.4,16.4,0,0,0,4.86-22.68h0a16.4,16.4,0,0,0-22.68-4.85l-17.2,11.13a16.4,16.4,0,0,0-4.85,22.68h0A16.4,16.4,0,0,0,42.15,297.61Z"/>
    </symbol>

    <symbol xmlns="http://www.w3.org/2000/svg" viewBox="0 0 144 144" id="door">
        <title>icon_Wall</title>
        <path fill="currentcolor" d="M60 15.6V21H35c-1.7 0-3 1.3-3 3v94c0 1.7 1.3 3 3 3h25v5.4c0 1.9 1.7 3.3 3.5 3L110 121V21l-46.5-8.4c-1.8-.3-3.5 1.1-3.5 3zM68 67c1.7 0 3 1.8 3 4s-1.3 4-3 4-3-1.8-3-4 1.3-4 3-4zm-28 46V29h20v84H40z"></path>
    </symbol>
    <symbol xmlns="http://www.w3.org/2000/svg" viewBox="0 0 144 144" id="ductSystems">
        <title>ductSystems</title>
        <path d="M74 17l-5-5a1.842 1.842 0 0 0-2.678-.261L22.372 55.69a2 2 0 0 0 0 2.828L28 64zm23 23L41 77 30.43 66.622 77 20l20 20zm18 44L50 95l-7-15 56-37 16 41zm1 30H50V98l66-11v27zm-66 3h66v7a2 2 0 0 1-2 2H52a2 2 0 0 1-2-2v-7z"></path>
    </symbol>
    <symbol xmlns="http://www.w3.org/2000/svg" viewBox="0 0 512 512" id="dwellingInfo">
        <title>Dwelling Info</title>
        <!--path fill="currentcolor" d="M334.78,109.59A3.74,3.74,0,0,1,331,105.9V43.21a.9.9,0,0,1,.44-.91,1,1,0,0,1,1.17.26l67.66,65.28a1.06,1.06,0,0,1,.25,1.17,1.12,1.12,0,0,1-.71.58ZM402,118.44V469.69a3.52,3.52,0,0,1-3.51,3.51H121a4,4,0,0,1-4-4V45.51a4,4,0,0,1,4-4H323a4,4,0,0,1,1,.14v71.1a4,4,0,0,0,4,4h72.35A1.65,1.65,0,0,1,402,118.44ZM178.13,169.13a10.12,10.12,0,0,0,10.12,10.12H351A10.13,10.13,0,1,0,351,159H188.25A10.12,10.12,0,0,0,178.13,169.13Zm-28.57.53a9.59,9.59,0,0,0,19.18,0v-1.07a9.59,9.59,0,0,0-19.18,0Zm0,71.67a9.59,9.59,0,0,0,19.18,0v-1.08a9.59,9.59,0,1,0-19.18,0Zm19.19,142.25a9.59,9.59,0,0,0-9.59-9.59h0a9.58,9.58,0,0,0-9.58,9.59v1.07a9.58,9.58,0,0,0,9.58,9.59h0a9.59,9.59,0,0,0,9.59-9.59Zm0-71.66a9.59,9.59,0,0,0-9.59-9.59h0a9.58,9.58,0,0,0-9.58,9.59V313a9.58,9.58,0,0,0,9.58,9.59h0a9.59,9.59,0,0,0,9.59-9.59Zm9.38-71.13a10.12,10.12,0,0,0,10.12,10.12H351a10.13,10.13,0,1,0,0-20.25H188.25A10.13,10.13,0,0,0,178.13,240.79ZM361.25,384.12A10.13,10.13,0,0,0,351.13,374H188.38a10.13,10.13,0,1,0,0,20.25H351.13A10.12,10.12,0,0,0,361.25,384.12Zm0-71.67a10.12,10.12,0,0,0-10.12-10.12H188.38a10.13,10.13,0,1,0,0,20.25H351.13A10.13,10.13,0,0,0,361.25,312.45Z"/-->
        <g><path fill="currentcolor" d="M425.19,509.89H92.38a55.77,55.77,0,0,1-55.7-55.71V61A55.77,55.77,0,0,1,92.38,5.25H425.19A55.77,55.77,0,0,1,480.89,61V454.18A55.77,55.77,0,0,1,425.19,509.89ZM92.38,50.25A10.71,10.71,0,0,0,81.68,61V454.18a10.72,10.72,0,0,0,10.7,10.71H425.19a10.72,10.72,0,0,0,10.7-10.71V61a10.71,10.71,0,0,0-10.7-10.71ZM398.54,276.73a19.66,19.66,0,0,0-29.36,0L257,398.28l-36.51-39.57a19.67,19.67,0,0,0-29.37,0,23.87,23.87,0,0,0,0,31.82l50.7,55a19.94,19.94,0,0,0,14.69,6.59,19.62,19.62,0,0,0,4.37-.52,20.15,20.15,0,0,0,11.51-6.3l126.13-136.7A23.85,23.85,0,0,0,398.54,276.73Zm6.08-149.49v-20A12.52,12.52,0,0,0,392.1,94.76H125.47A12.52,12.52,0,0,0,113,107.28v20a12.51,12.51,0,0,0,12.52,12.52H392.1A12.51,12.51,0,0,0,404.62,127.24Zm0,93.16v-20a12.52,12.52,0,0,0-12.52-12.52H125.47A12.52,12.52,0,0,0,113,200.44v20a12.52,12.52,0,0,0,12.52,12.52H392.1A12.52,12.52,0,0,0,404.62,220.4ZM279.24,313.56v-20a12.52,12.52,0,0,0-12.52-12.52H126.88a12.52,12.52,0,0,0-12.52,12.52v20a12.53,12.53,0,0,0,12.52,12.52H266.72A12.53,12.53,0,0,0,279.24,313.56Z"/></g>
    </symbol>
    <symbol xmlns="http://www.w3.org/2000/svg" viewBox="0 0 144 144" id="floors">
        <title>foors</title>
        <path d="M72 58.46L52.89 69.73 73 81.36l19-11.18zm-22.9 37L29 83.81l20.75-12.23 20 11.72zM93 97.24l-19.54 11a3 3 0 0 1-3 0l-19-11L72.2 85zm22.75-12.82l-19.31 10.9-21.23-12 19.23-11.4zm1.63-26.05l17.37 10.16a3 3 0 0 1 0 5.2L118.39 83 97.06 70.38zM95 44.92l20 11.71-20.24 11.92L74.54 57zm-44-2.29l19.1-11a3 3 0 0 1 3 0L92.31 42.9l-20.2 11.91zM29 55.26l19.36-11.12 21 12.3-19 11.19zM9.23 71.82a3 3 0 0 1 0-5.19l16.6-9.54.15.1 21.13 12.37-20.73 12.23z" fill-rule="evenodd" fill="currentcolor"></path>
    </symbol>
    <symbol xmlns="http://www.w3.org/2000/svg" viewBox="0 0 144 144" id="hotWaterPipings">
        <title>hotWaterPipings</title>
        <path d="M121.15 120.38c0-4.77-8.7-18.09-8.7-18.09s-8.83 13.32-8.83 18.09a8.77 8.77 0 0 0 17.53 0zM58 46H40V29h6v-8a2 2 0 0 0-2-2H16a2 2 0 0 0-2 2v8h4v26.52A12.64 12.64 0 0 0 30.8 68H58v4h8a2 2 0 0 0 2-2V43a2 2 0 0 0-2-2h-8zm66 39V58.48A12.64 12.64 0 0 0 111.21 46H84v-5h-8a2 2 0 0 0-2 2v27a2 2 0 0 0 2 2h8v-4h18v17h-6v7a2 2 0 0 0 2 2h28a2 2 0 0 0 2-2v-7z"></path>
    </symbol>

    <symbol id="HVACSystems" viewBox="0 0 512 512">
        <title>hvac-systems</title>
        <!--path fill="currentcolor" d="M198.35,257.65a22.22,22.22,0,1,1-22.21-22.22A22.21,22.21,0,0,1,198.35,257.65Zm-11.19-17.86a32.34,32.34,0,0,0,13.34-18.3c.42-1.53,3.85-15.17-4-25-7.39-9.23-18.85-9.54-22.69-9.64-9.1-.22-23,3.08-25.21,10.93-1.53,5.46,3.78,9,10.56,23.41a116.17,116.17,0,0,1,6.7,18.1,21,21,0,0,1,21.32.49Zm.55,35.26a32.9,32.9,0,0,0,9.52,21.48c1.77,1.73,11.05,10.85,23.74,8.79,11.68-1.9,17.58-11.73,19.55-15,4.67-7.82,8.64-21.56,2.87-27.33-4.19-4.2-10.17-1-25.57-2.32A97.11,97.11,0,0,1,197,256.54a20.94,20.94,0,0,1-9.32,18.51Zm-32.5-17.92a32.42,32.42,0,0,0-22.53-2.29c-1.54.42-15,4.34-19.55,16.09-4.24,11,1.27,21.09,3.13,24.45,4.4,8,14.27,18.32,22.16,16.25,5.48-1.44,5.82-7.78,14.88-20.93a116.65,116.65,0,0,1,12.24-14.92,21,21,0,0,1-10.33-18.65Zm291.49-119V376.84H56.3V138.12Zm-177,119.48a90.83,90.83,0,1,0-90.83,90.83A90.83,90.83,0,0,0,269.74,257.6Zm120.64,56.3a11.22,11.22,0,0,0-11.23-11.22H299.22A11.22,11.22,0,0,0,288,313.9h0a11.22,11.22,0,0,0,11.22,11.22h79.93a11.22,11.22,0,0,0,11.23-11.22Zm35.62,0a11.22,11.22,0,0,0-11.22-11.22h-8a11.22,11.22,0,0,0-11.22,11.22h0a11.22,11.22,0,0,0,11.22,11.22h8A11.22,11.22,0,0,0,426,313.9Zm0-57.36a11.22,11.22,0,0,0-11.22-11.22H299.22a11.23,11.23,0,0,0,0,22.45H414.78A11.22,11.22,0,0,0,426,256.54Zm0-54.44a11.22,11.22,0,0,0-11.22-11.22H299.22A11.22,11.22,0,0,0,288,202.1h0a11.22,11.22,0,0,0,11.22,11.22H414.78A11.22,11.22,0,0,0,426,202.1Z"/-->        
        <g><path fill="currentcolor" d="M256.07,29.06C129.84,29.06,27.5,131.39,27.5,257.63S129.84,486.2,256.07,486.2,484.65,383.87,484.65,257.63,382.31,29.06,256.07,29.06Zm-19.75,224.1a21.17,21.17,0,1,1,21.17,21.17A21.2,21.2,0,0,1,236.32,253.16ZM137.45,125.93c.75-18,22.11-29.95,28.26-33.39,25.4-14.25,62.24-12.63,83.49,8.34,18.79,18.55,18.05,45,17.34,70.65A159.23,159.23,0,0,1,262,205.18c-1.48-.14-3-.22-4.48-.22a48.17,48.17,0,0,0-40.82,22.63,203.35,203.35,0,0,0-26.55-40C162.4,155,136.61,146.05,137.45,125.93ZM109.26,360c-17.81-2.51-27.63-25-30.46-31.41C67.13,302,72.36,265.45,95.33,246.37c20.31-16.87,46.56-13.54,72-10.3a160.22,160.22,0,0,1,42.3,11.45A47.79,47.79,0,0,0,225,288.72a204.14,204.14,0,0,0-49.2,25C140.68,338.09,129.19,362.86,109.26,360ZM353,408.6c-3.55,17.63-26.52,26.12-33.13,28.57-27.31,10.1-63.46,2.74-81.16-21.3-15.66-21.25-10.8-47.27-6.09-72.49a160.65,160.65,0,0,1,14.68-43.12,48.13,48.13,0,0,0,41.5-10.49,204,204,0,0,0,21.82,49.7C332.89,376,357,388.86,353,408.6Zm61-137.76c-20.72,16.36-46.88,12.38-72.24,8.52a160.22,160.22,0,0,1-38.51-10.95,48.1,48.1,0,0,0-8.83-46.23,202.51,202.51,0,0,0,40.79-20.64c35.71-23.51,47.8-48,67.66-44.69,17.74,3,27,25.63,29.68,32.15C443.51,216,437.38,252.33,414,270.84Z"/></g>
    </symbol>

    <symbol xmlns="http://www.w3.org/2000/svg" viewBox="0 0 144 144" id="HVACSystem">
        <title>icon</title>
        <path fill="currentcolor"
            d="M99.13 93.65l10.57 21a.78.78 0 0 1-1.12 1L89 102.8a36.73 36.73 0 0 0 10.13-9.15M106.48 74l20.69 11.57a.77.77 0 0 1-.37 1.43l-23.69.23A36.13 36.13 0 0 0 106.48 74zm-4.67-20.36L125.45 52a.78.78 0 0 1 .48 1.42L106.2 66.56a36.28 36.28 0 0 0-4.39-12.94zM88.08 39.89l19.48-13.5a.78.78 0 0 1 1.14 1L98.5 48.76a36.72 36.72 0 0 0-10.42-8.87zm-13.58-23L81.79 37A36.54 36.54 0 0 0 73 35.24V17.18a.77.77 0 0 1 1.5-.27zM73 38.83a32.89 32.89 0 0 1 0 65.56zM67.43 131h-2.3a5.46 5.46 0 0 1-2.13-1.45V110.3l-10 9.16a1.55 1.55 0 0 1-2.37-.43l-1.61-2.92a1.54 1.54 0 0 1 .33-1.9L64 101.51 64.08 79 46.34 89.75l-1.56 20.51a1.55 1.55 0 0 1-2.15 1.31l-3.27-1.37a1.56 1.56 0 0 1-1-1.52l.91-15.21-14.69 9.35a1.54 1.54 0 0 1-2-.34l-2.51-3.15a1.55 1.55 0 0 1 .36-2.25l15.63-10.44L22 80.3a1.54 1.54 0 0 1-.81-2l.94-2.57a1.55 1.55 0 0 1 2-.9L43 82.44l19.74-11.6L40.43 58l-17 10.33a1.56 1.56 0 0 1-2.25-.76l-1-2.7a1.55 1.55 0 0 1 .5-1.87l12.63-8.59-13.46-8.2a1.55 1.55 0 0 1-.38-2.32l2.08-2.49a1.55 1.55 0 0 1 1.94-.37L37 48.47l.1-14.31a1.57 1.57 0 0 1 1.08-1.47L41 31.8a1.55 1.55 0 0 1 2 1.48v18L63 61.6V37.52l-13.38-8.77A1.56 1.56 0 0 1 49 27l.92-2.86a1.55 1.55 0 0 1 2.22-.89L64 29.6l-.08-15a1.55 1.55 0 0 1 1.53-1.6h2A1.56 1.56 0 0 1 69 14.52v114.93a1.56 1.56 0 0 1-1.57 1.55zm13.49-24.48l-6.41 19.6a.77.77 0 0 1-1.51-.24V108a36.94 36.94 0 0 0 7.92-1.48z" fill-rule="evenodd"></path>
    </symbol>
    <symbol xmlns="http://www.w3.org/2000/svg" viewBox="0 0 144 144" id="HVACSystemRooms">
        <title>HVACSystemRooms</title>
        <path fill="currentcolor" d="M129.62 76.12l-27.29-15.75-.18-.07v-29a2.87 2.87 0 0 0-.05-.41 1.61 1.61 0 0 0-.17-1.24 1.64 1.64 0 0 0-1-.75 2.88 2.88 0 0 0-.34-.27L74 13.3a3.13 3.13 0 0 0-3.08 0L44.38 28.65a1.73 1.73 0 0 0-.21.17 1.62 1.62 0 0 0-1 .75 1.74 1.74 0 0 0-.22.85 3 3 0 0 0-.14.9v31.5a1.58 1.58 0 0 0 .11.58L16 79v33l29 15 27-15v-1a1.62 1.62 0 0 0 .67.77l27.78 16a1.64 1.64 0 0 0 2.1 0l27.06-15.63a3.09 3.09 0 0 0 1.54-2.66V78.79a3.1 3.1 0 0 0-1.53-2.67zM126 77.84l-24.95 14.38L77 78.32l24.36-14.06a1.67 1.67 0 0 0 .44-.4zM46.15 33.18l24.7 14.26v28.69l-24.7-14.26zm52.7 28.24l-24.7 14.26V47.79l24.7-14.41zM72.5 16.24L97.21 30.5 72.8 44.75 48 30.4zm2.65 64.85l24.7 14.26v28.25l-24.7-14.26zm28 42.51V94.83l24.7-14.26v28.77z" fill-rule="evenodd"></path>
    </symbol>
    <symbol xmlns="http://www.w3.org/2000/svg" viewBox="0 0 144 144" id="internalLoads">
        <title>icon-09</title>
        <path fill="currentcolor" d="M21 106h11v6H21zm75 0h11v6H96z"></path>
        <path fill="currentcolor" d="M133 38.32l-8.61-7.79A3.76 3.76 0 0 0 122 30H22a4 4 0 0 0-2.34.76l-8.61 7.55A3.08 3.08 0 0 0 10 40.63v66.29a3.08 3.08 0 0 0 3.08 3.08h117.84a3.08 3.08 0 0 0 3.08-3.08V40.6a3.08 3.08 0 0 0-1-2.28zM97 98H26V54h71zm23.77-9.82A6.45 6.45 0 0 1 116 93a6.53 6.53 0 1 1 4.81-4.81zM123 70h-17V58h17z"
              fill-rule="evenodd"></path>
    </symbol>
    <symbol xmlns="http://www.w3.org/2000/svg" viewBox="0 0 512 512" id="infiltration">
        <title>Infiltration</title>
        <g id="Infiltration">   
            <path fill="currentcolor" d="M254.76,342q-3.16,0-6.36-.28H33.19a17.5,17.5,0,0,1,0-35H250.1l.88.09c10.63,1.08,18.89-2.43,22.07-6.15a6.33,6.33,0,0,0,1.26-6.3c-1-3.6-5.07-6.76-8.56-8.52-3-1.51-10-5.05-15.91-3.19a8.38,8.38,0,0,0-5.13,4.13,17.5,17.5,0,0,1-31.59-15.07,43.41,43.41,0,0,1,26.3-22.48c19.49-6.07,36.53,2.54,42.12,5.37,13.38,6.76,23,17.86,26.51,30.46a41.23,41.23,0,0,1-8.41,38.35C289.58,335.19,272.83,342,254.76,342ZM310,456.07c7.92-1.2,19.89-3,31-11.48a45.18,45.18,0,0,0,17.7-31.06c1.58-12.72-2.54-25.64-11.58-36.38-13.89-16.49-38.79-25.2-66.7-23.35H32.69a17.5,17.5,0,0,0,0,35H281c.42,0,.84,0,1.26-.05,16.26-1.16,31.57,3.23,38.07,10.95,1.56,1.85,4.11,5.56,3.62,9.54a10.17,10.17,0,0,1-4.22,7.54c-3.95,3-9.55,3.86-15,4.68-6.32,1-13.48,2-17.79,0s-4.45-8.06-4.44-8.94a17.5,17.5,0,0,0-34.95-1.93c-.68,11.23,3.72,32.84,24.58,42.58a50.07,50.07,0,0,0,21.43,4.42A108.78,108.78,0,0,0,310,456.07ZM209.87,473c15-12.42,19.23-32.42,10.19-48.63-8-14.39-25.14-23.56-43.83-23.56H35a17.5,17.5,0,0,0,0,35H175.85c6.78-.1,12.08,2.8,13.64,5.6.95,1.72-.51,3.45-1.91,4.6-4.23,3.5-13.34,5.09-21.25,1.69a17.5,17.5,0,0,0-13.8,32.16,59,59,0,0,0,23.25,4.74C188.36,484.64,200.64,480.66,209.87,473Zm262.94,12V236.25a22.5,22.5,0,1,0-45,0V462.54H360.49a22.5,22.5,0,0,0,0,45h89.82A22.5,22.5,0,0,0,472.81,485ZM500.38,296.3a22.49,22.49,0,0,0,3.37-31.64L304.62,17.91a22.5,22.5,0,0,0-35,0L70.5,264.61a22.5,22.5,0,1,0,35,28.26l181.59-225L468.74,292.92a22.5,22.5,0,0,0,31.64,3.38Z"/></g>
    </symbol>
    <symbol xmlns="http://www.w3.org/2000/svg" viewBox="0 0 512 512" id="loadCalculationType">
        <title>Load Calculation Type</title>
        <g><path fill="currentcolor" d="M475.59,220.51,435,215.63a183.37,183.37,0,0,0-28.39-67.83l25.16-31.92a9.42,9.42,0,0,0-.73-12.51q-14.49-14.48-29-29a9.46,9.46,0,0,0-12.45-.79l-32.31,25a183.28,183.28,0,0,0-67.54-28.14L285,29.91a9.44,9.44,0,0,0-9.37-8.33H234.64a9.43,9.43,0,0,0-9.36,8.25Q222.71,50,220.14,70.12a183.54,183.54,0,0,0-69.83,28.77L118.4,73.73a9.43,9.43,0,0,0-12.51.74q-14.49,14.48-29,29a9.42,9.42,0,0,0-.79,12.44l25,32.31A183.45,183.45,0,0,0,73,215.72l-40.57,4.8a9.44,9.44,0,0,0-8.33,9.37v41a9.42,9.42,0,0,0,8.24,9.35l40.3,5.14a183.29,183.29,0,0,0,28.4,69.3L76.1,387.1a9.43,9.43,0,0,0,.81,12.42l29,29a9.43,9.43,0,0,0,12.5.75l32-25.13A183.52,183.52,0,0,0,220,432.81q2.65,20.19,5.29,40.37a9.45,9.45,0,0,0,9.36,8.21h41a9.43,9.43,0,0,0,9.36-8.31q2.44-20.31,4.88-40.61a183.69,183.69,0,0,0,67.3-28l32.47,24.94a9.44,9.44,0,0,0,12.42-.81l29-29a9.44,9.44,0,0,0,.75-12.5q-12.57-16-25.13-32a183.46,183.46,0,0,0,28.68-69.57l40.36-5.29a9.44,9.44,0,0,0,8.21-9.35v-41A9.44,9.44,0,0,0,475.59,220.51ZM254,344.87a93.39,93.39,0,1,1,93.39-93.39A93.39,93.39,0,0,1,254,344.87Z"/></g>
        <!--path fill="currentcolor" d="M331.28,104.75a3.73,3.73,0,0,1-3.77-3.69V38.38a.89.89,0,0,1,.44-.91,1,1,0,0,1,1.17.26L396.78,103a1,1,0,0,1-.46,1.75ZM259.53,209.41a46.48,46.48,0,1,0,44,44A46.48,46.48,0,0,0,259.53,209.41Zm139-95.8V464.85a3.52,3.52,0,0,1-3.51,3.51H117.5a4,4,0,0,1-4-4V40.68a4,4,0,0,1,4-4h202a4.53,4.53,0,0,1,1,.13V108a4,4,0,0,0,4,4h72.35A1.65,1.65,0,0,1,398.5,113.61Zm-59.87,135.6-14.05-1.92a67.71,67.71,0,0,0-4.82-17.94L331,220.62l-6.57-11.38-13.25,5.39a67.91,67.91,0,0,0-12.93-12.92l5.44-13.32-11.38-6.58-8.82,11.34a67.56,67.56,0,0,0-17.86-4.78l-1.92-14.05H250.59l-2,14a67.79,67.79,0,0,0-17.88,4.77q-4.33-5.59-8.68-11.2l-10.63,6.14a1,1,0,0,0-.42,1.24l5,12.33a68.53,68.53,0,0,0-13,13l-13-5.31-6.57,11.38,11.08,8.6a67.85,67.85,0,0,0-4.82,18l-14.05,1.91v13.15l14,1.94a67.69,67.69,0,0,0,4.75,17.83l-11.12,8.64,6.57,11.38,13-5.32a68.46,68.46,0,0,0,13.22,13.23q-2.64,6.46-5.27,12.94l11.38,6.57,8.57-11a67.66,67.66,0,0,0,17.89,4.77q1,7,1.93,14h13.14q1-7,1.93-14a67.44,67.44,0,0,0,17.88-4.79l8.69,11.19,11.38-6.57L298.24,310a68.12,68.12,0,0,0,13.1-13.12l13.23,5.41,6.57-11.39-11.29-8.78a68,68,0,0,0,4.74-17.8l14-1.93Z" /-->
    </symbol>
    <symbol xmlns="http://www.w3.org/2000/svg" viewBox="0 0 144 144" id="mapTrace">
        <title>icon-14</title>
        <path d="M75 85.62l10 5.83L76.35 68a3.68 3.68 0 0 1-.58 0H75zm46.29 2.72l-15.93-36.86-.46.15-10.34 22.1a3.49 3.49 0 0 1-6.3 0l-7.08-14.82-4.76 1.46 1.49 1.57A3.48 3.48 0 0 1 79 64.46a3.4 3.4 0 0 1-.6 1.94l9.7 26.49zm-21.6 36.2L132 113l-9.58-22.17L89 95.42zm-41.47-10.6L97 124.84 86.15 95.28l-11.37-6.67A3.44 3.44 0 0 1 71.33 92H51.52zm-34.16 5.65l3.61 14.64 10.4-7.45zm-4.85-19.68l4 16.34 17.24 8.86 15.11-10.82L48.77 92H30.61a3.45 3.45 0 0 1-3.22-2.21zM12.12 71.8l6.14 25L27 85.94V68h-.56a3.44 3.44 0 0 1-3.55-3.29z"
              fill-rule="evenodd" fill="currentcolor"></path>
        <path d="M91.29 20.49a8.58 8.58 0 1 0 8.57 8.58 8.58 8.58 0 0 0-8.57-8.58z" fill="currentcolor">></path>
        <path d="M110.19 27.86a19 19 0 1 0-36.93 6.34A19.08 19.08 0 0 0 75 37.77l16.4 34.48 17-36.34a19 19 0 0 0 1.79-8.05zM91.29 40.6a11.54 11.54 0 1 1 11.54-11.53A11.54 11.54 0 0 1 91.29 40.6zM71 90H30.18A1.18 1.18 0 0 1 29 88.82V66h-2.94a1.18 1.18 0 0 1-.84-2L49.9 38.36a1.18 1.18 0 0 1 1.65 0L75.8 63.93a1.19 1.19 0 0 1 .41.89A1.17 1.17 0 0 1 75 66h-3v22.82A1.18 1.18 0 0 1 70.82 90M31 88h38V65.18A1.18 1.18 0 0 1 70.18 64h1.46l-21.4-22.79L28.49 64h1.33A1.18 1.18 0 0 1 31 65.18z"  fill="currentcolor">></path>
        <path fill="none" stroke="currentcolor" stroke-linecap="round" stroke-linejoin="round" stroke-width="2.53" d="M44.5 69.5h12v19h-12z"></path>
    </symbol>




 

<symbol viewBox="0 0 436.74 436.74" id="text">
<g fill="currentcolor">
    <path d="M278.079,339.563c-4.034-0.93-8.062,1.589-8.992,5.625l-8.68,37.687H16.924l22.956-99.67h185.494
        c4.142,0,7.5-3.358,7.5-7.5s-3.358-7.5-7.5-7.5H39.88l-22.956-99.67h243.484l11.055,48c0.93,4.037,4.956,6.556,8.992,5.625
        c4.037-0.93,6.555-4.956,5.625-8.992l-12.007-52.134l26.023-112.987c0.513-2.227-0.018-4.565-1.44-6.354s-3.583-2.83-5.868-2.83
        H33.911c-3.494,0-6.524,2.412-7.309,5.817L0.192,159.352c-0.255,1.107-0.255,2.259,0,3.366l26.023,112.987L0.192,388.692
        c-0.513,2.227,0.018,4.565,1.44,6.354s3.583,2.83,5.868,2.83h258.876c3.494,0,6.524-2.412,7.309-5.817l10.02-43.503
        C284.634,344.519,282.116,340.493,278.079,339.563z M39.88,53.865h243.484l-22.956,99.67H16.924L39.88,53.865z"/>
    <path d="M62.997,93.201h128.994c4.142,0,7.5-3.358,7.5-7.5s-3.358-7.5-7.5-7.5H62.997c-4.142,0-7.5,3.358-7.5,7.5
        S58.855,93.201,62.997,93.201z"/>
    <path d="M49.498,129.199h128.994c4.142,0,7.5-3.358,7.5-7.5s-3.358-7.5-7.5-7.5H49.498c-4.142,0-7.5,3.358-7.5,7.5
        S45.356,129.199,49.498,129.199z"/>
    <path d="M199.491,315.041c0-4.142-3.358-7.5-7.5-7.5H62.997c-4.142,0-7.5,3.358-7.5,7.5s3.358,7.5,7.5,7.5h128.994
        C196.133,322.541,199.491,319.183,199.491,315.041z"/>
    <path d="M49.498,343.539c-4.142,0-7.5,3.358-7.5,7.5s3.358,7.5,7.5,7.5h128.994c4.142,0,7.5-3.358,7.5-7.5s-3.358-7.5-7.5-7.5
        H49.498z"/>
    <path d="M185.991,200.371c0-4.142-3.358-7.5-7.5-7.5H49.498c-4.142,0-7.5,3.358-7.5,7.5s3.358,7.5,7.5,7.5h128.994
        C182.633,207.871,185.991,204.513,185.991,200.371z"/>
    <path d="M62.997,243.869h128.994c4.142,0,7.5-3.358,7.5-7.5s-3.358-7.5-7.5-7.5H62.997c-4.142,0-7.5,3.358-7.5,7.5
        S58.855,243.869,62.997,243.869z"/>
    <path d="M216.135,100.333c0.526,2.63,2.417,4.779,4.958,5.636c0.784,0.264,1.592,0.393,2.395,0.393
        c1.801,0,3.572-0.649,4.963-1.876l25.499-22.499c3.106-2.74,3.402-7.48,0.661-10.586c-2.74-3.105-7.479-3.402-10.586-0.661
        L228.29,84.624l-0.446-2.232c-0.813-4.061-4.759-6.696-8.826-5.883c-4.062,0.813-6.695,4.764-5.883,8.826L216.135,100.333z"/>
    <path d="M223.867,222.752c0.37,0,0.742-0.027,1.114-0.083c2.652-0.398,4.891-2.183,5.869-4.68l12.411-31.66
        c1.512-3.856-0.389-8.208-4.245-9.72c-3.857-1.514-8.208,0.389-9.72,4.245l-7.659,19.538l-1.417-1.782
        c-2.577-3.242-7.295-3.782-10.538-1.204c-3.242,2.577-3.782,7.295-1.204,10.538l9.518,11.975
        C219.431,221.724,221.601,222.752,223.867,222.752z"/>
    <path d="M224.687,258.6c1.435,1.805,3.604,2.833,5.87,2.833c0.37,0,0.742-0.027,1.114-0.083c2.652-0.398,4.891-2.183,5.869-4.68
        l12.411-31.66c1.512-3.856-0.389-8.208-4.245-9.72c-3.858-1.514-8.208,0.389-9.72,4.245l-7.659,19.538l-1.417-1.782
        c-2.577-3.242-7.294-3.782-10.538-1.204c-3.242,2.577-3.782,7.295-1.204,10.538L224.687,258.6z"/>
    <path d="M434.71,178.7l-38.241-40.765c-1.361-1.451-3.242-2.301-5.23-2.365c-1.998-0.056-3.92,0.666-5.371,2.026L242.563,272.029
        c-0.919,0.862-1.606,1.941-1.997,3.139l-18.072,55.272c-0.852,2.604-0.216,5.464,1.659,7.462c1.437,1.531,3.425,2.369,5.47,2.369
        c0.623,0,1.251-0.078,1.871-0.237l56.313-14.508c1.22-0.314,2.341-0.931,3.26-1.793l143.305-134.433
        C437.392,186.467,437.544,181.721,434.71,178.7z M241.004,322.094l9.884-30.229l20.914,22.294L241.004,322.094z M286.274,307.662
        l-27.978-29.825l132.365-124.17l27.979,29.825L286.274,307.662z"/>
</g>
<g>
</g>
<g>
</g>
<g>
</g>
<g>
</g>
<g>
</g>
<g>
</g>
<g>
</g>
<g>
</g>
<g>
</g>
<g>
</g>
<g>
</g>
<g>
</g>
<g>
</g>
<g>
</g>
<g>
</g>
</symbol>

    <symbol xmlns="http://www.w3.org/2000/svg" viewBox="0 0 512 512" id="MJ8Reports">
        <title>MJ8Reports</title>
        <g>
            <path fill="currentcolor" d="M137.87,408.58a24.24,24.24,0,0,1-24.07-24.4,1,1,0,0,0,0-.17,22.34,22.34,0,0,1,3.24-11.78l48-81.06a31.93,31.93,0,0,1,42.5-11.78l67.23,36.52,83.79-128.16a23.89,23.89,0,0,1,39.94,26.11l-92.16,141a31.9,31.9,0,0,1-41.81,10.58l-66.55-36.52-40.1,68.27A24.25,24.25,0,0,1,137.87,408.58ZM456.06,105.69,364.28,9.5A47.81,47.81,0,0,0,338.39,0h-248a35.5,35.5,0,0,0-37,33.9V477.87A35.49,35.49,0,0,0,89.4,512H427.64a35.5,35.5,0,0,0,35.15-35.5V124.44a26.26,26.26,0,0,0-2-11.22A26,26,0,0,0,456.06,105.69Zm-75.18-9.07h-15V81.27l12.46,14.84ZM101.52,464.55V48.67H317.91v69.46a26.62,26.62,0,0,0,26.62,26.28h70.31v319.8Z"/></g>
    </symbol>
    <symbol xmlns="http://www.w3.org/2000/svg" viewBox="0 0 512 512" id="homeOwnerLead">
        <g><path fill="currentcolor" d="M274.56,505.35a20.45,20.45,0,0,1-30.86-.77l-3.12-3.74c-22.89-27.39-45.57-55.29-67.42-82.91-42.27-53.45-54-71.2-65.76-93-16.55-30.75-27.68-51.41-32-69.71-.09-.38-.19-.76-.31-1.13A197.28,197.28,0,0,1,66.4,196C66.4,88.27,153.09.62,259.65.62S452.9,88.27,452.9,196a196.25,196.25,0,0,1-14,73.22c-4.66,13.64-11.73,29.09-19.89,46.92-8,17.53-20.39,41-65.92,98.06-23.73,29.73-49,59.19-75.18,87.57ZM259.65,51.5c-79,0-143.25,64.82-143.25,144.5a145.78,145.78,0,0,0,6.8,44.12l.07.21a20,20,0,0,1,.53,2l0,.21c2.45,11.56,12.92,31,27.4,57.9,10.26,19,21,35.14,60.87,85.57q16.19,20.48,32.92,41.06a20.47,20.47,0,0,0,31.49.46q19.39-22.5,37.7-45.43c45.44-56.94,54.52-76.79,59.4-87.45,7.71-16.85,14.37-31.39,18.16-42.67l.54-1.44A144.83,144.83,0,0,0,402.9,196C402.9,116.32,338.63,51.5,259.65,51.5Zm0,76.89c-33.17,0-60.06,27.36-60.06,61.11s26.89,61.12,60.06,61.12,60.06-27.37,60.06-61.12S292.82,128.39,259.65,128.39Z"/></g>        
    </symbol>
    <symbol xmlns="http://www.w3.org/2000/svg" viewBox="0 0 512 512" id="MJ8Project">
        <g><path fill="currentcolor" d="M274.56,505.35a20.45,20.45,0,0,1-30.86-.77l-3.12-3.74c-22.89-27.39-45.57-55.29-67.42-82.91-42.27-53.45-54-71.2-65.76-93-16.55-30.75-27.68-51.41-32-69.71-.09-.38-.19-.76-.31-1.13A197.28,197.28,0,0,1,66.4,196C66.4,88.27,153.09.62,259.65.62S452.9,88.27,452.9,196a196.25,196.25,0,0,1-14,73.22c-4.66,13.64-11.73,29.09-19.89,46.92-8,17.53-20.39,41-65.92,98.06-23.73,29.73-49,59.19-75.18,87.57ZM259.65,51.5c-79,0-143.25,64.82-143.25,144.5a145.78,145.78,0,0,0,6.8,44.12l.07.21a20,20,0,0,1,.53,2l0,.21c2.45,11.56,12.92,31,27.4,57.9,10.26,19,21,35.14,60.87,85.57q16.19,20.48,32.92,41.06a20.47,20.47,0,0,0,31.49.46q19.39-22.5,37.7-45.43c45.44-56.94,54.52-76.79,59.4-87.45,7.71-16.85,14.37-31.39,18.16-42.67l.54-1.44A144.83,144.83,0,0,0,402.9,196C402.9,116.32,338.63,51.5,259.65,51.5Zm0,76.89c-33.17,0-60.06,27.36-60.06,61.11s26.89,61.12,60.06,61.12,60.06-27.37,60.06-61.12S292.82,128.39,259.65,128.39Z"/></g>        
    </symbol>
    <symbol xmlns="http://www.w3.org/2000/svg" viewBox="0 0 144 144" id="room">
        <title>icon</title>
        <path d="M80.11 34.62l-8-4.24A2.13 2.13 0 0 1 71 28.47V20h4v7.17l6.89 3.65zm-7-18.77a12.71 12.71 0 1 0 12.71 12.71 12.72 12.72 0 0 0-12.71-12.71zM80 77.36V84h25v-6.64A6.36 6.36 0 0 0 98.64 71H86.36A6.36 6.36 0 0 0 80 77.36zM22 126h5l1.7-6.42a2.13 2.13 0 0 1 2.01-1.58h84.79a2.12 2.12 0 0 1 2 1.58l1.7 6.42h4.8v-17H22zm20-48.64V84h25v-6.64A6.36 6.36 0 0 0 60.64 71H48.36A6.36 6.36 0 0 0 42 77.36zM120 100h-4v-4h4zm-9 0h-4v-4h4zm6.64-12H28.36A6.36 6.36 0 0 0 22 94.36V105h102V94.36a6.36 6.36 0 0 0-6.36-6.36z"></path>
        <path d="M37 77c0-5.52 4.76-10 10.62-10h12.75C66.24 67 71 71.48 71 77v6h4v-6c0-5.52 4.76-10 10.63-10h12.74c5.87 0 10.63 4.48 10.63 10v6h5V64.36a6.36 6.36 0 0 0-6.36-6.36H39.36A6.36 6.36 0 0 0 33 64.36V83h4z"></path>
    </symbol>

    <symbol xmlns="http://www.w3.org/2000/svg" viewBox="0 0 512 512" id="projectData">
        <path fill="currentcolor" d="M352.26,299.42l-42.34-60.21,9.6-6.75a19.27,19.27,0,0,1,26.84,4.67l20,28.39a19.64,19.64,0,0,1-4.77,27.37ZM156.84,392.63l63.68-.37-41.78-59.43ZM500.23,316.5a33.94,33.94,0,0,1-29.63,7.13V478.47a34,34,0,0,1-34,34h-355a34,34,0,0,1-34-34V335.05a34,34,0,0,1-38-53.74L236.34,12.59a34,34,0,0,1,52,0l216,256A34,34,0,0,1,500.23,316.5Zm-97.63-63L262.33,87.24,115.59,261.16V444.47h287ZM230.15,384.68l112.23-78.92L301,246.88,188.74,325.8Z"/>
    </symbol>
    <symbol xmlns="http://www.w3.org/2000/svg" viewBox="0 0 103 103" id="roomDimensions">
        <title>room-dimensions</title>
        <path d="M103 96.1c0 3.8-3.1 6.9-6.9 6.9H6.9C3.1 103 0 99.9 0 96.1V67.9C0 64.1 3.1 61 6.9 61H61V6.9C61 3.1 64.1 0 67.9 0h28.3c3.8 0 6.9 3.1 6.9 6.9v89.2zM65 68H54v17h-3V68h-8v12h-3V68H26v17h-3V68h-8v12h-3V68H5v29h60V68zM97 6H67v7h12v3H67v8h18v3H67v13h12v3H67v9h18v3H67v11h30V6zm0 62H68v29h29V68z"></path>
    </symbol>
 

    <symbol xmlns="http://www.w3.org/2000/svg" viewBox="0 0 144 144" id="walls">
        <title>icon_Wall</title>
        <rect x="96" y="91" width="38" height="14" rx="3.671"></rect>
        <rect x="31" y="73" width="38" height="14" rx="3.671"></rect>
        <rect x="53" y="54" width="38" height="14" rx="3.671"></rect>
        <rect x="53" y="91" width="38" height="14" rx="3.671"></rect>
        <rect x="10" y="91" width="38" height="14" rx="3.671"></rect>
        <rect x="10" y="73" width="17" height="14" rx="3.671"></rect>
        <rect x="10" y="54" width="38" height="14" rx="3.671"></rect>
        <rect x="10" y="35" width="18" height="14" rx="3"></rect>
        <rect x="32" y="35" width="38" height="14" rx="3"></rect>
        <rect x="74" y="73" width="38" height="14" rx="3.671"></rect>
    </symbol>
    <symbol xmlns="http://www.w3.org/2000/svg" viewBox="0 0 144 144" id="window">
        <title>icon_Wall</title>
        <path d="M62.1 114.2l3.3.3 5.6.5 49.7 4.7c1.8.2 3.3-1.2 3.3-3V24.3c0-1.8-1.5-3.2-3.3-3L71 26l-5.6.5-3.3.3-41.4 3.9c-1.5.1-2.7 1.4-2.7 3v73.5c0 1.5 1.2 2.8 2.7 3l41.4 4zM115 110l-44-3.9V70h44v40zm0-79v31H71V35l44-4zm-88 8l35-3v26H27V39zm0 63V70h35v35l-35-3z"
              fill="currentcolor"></path>
    </symbol>



 
<symbol  viewBox="0 0 511.999 511.999" id="blockLoad">
<g fill="currentcolor">
    <g>
        <path d="M511.864,221.487c-0.921-11.988-6.455-22.896-15.581-30.716l-44.286-37.96V44.944c0-8.284-6.716-14.999-14.999-14.999
            h-59.998c-8.284,0-14.799,6.716-14.799,14.999v30.728l-75.911-64.695c-16.97-14.539-41.603-14.537-58.519-0.043L15.728,190.769
            c-18.753,16.068-21.186,44.423-4.866,63.473c12.439,14.465,32.364,19.077,49.35,13.107v229.584
            c0,8.284,6.516,14.999,14.799,14.999h361.986c8.284,0,14.999-6.716,14.999-14.999V267.352c17.534,6.2,37.039,1.004,49.167-13.13
            C508.983,245.094,512.784,233.468,511.864,221.487z M391.999,59.943h30.199v67.154l-30.199-25.713V59.943z M317.202,481.934
            H195.007V361.738h122.195V481.934z M422.198,481.934h-75.197V346.939c0-8.284-6.716-14.999-14.999-14.999H180.007
            c-8.284,0-14.799,6.716-14.799,14.999v134.995H90.011V245.775l166.943-141.613l165.245,141.473V481.934z M478.389,234.694
            c-5.318,6.198-14.772,7.107-21.158,1.631L266.765,73.061c-5.595-4.797-13.845-4.817-19.464-0.05
            C243.242,76.453,55.58,235.643,54.786,236.317c-6.282,5.375-15.782,4.642-21.161-1.615c-5.385-6.285-4.657-15.774,1.569-21.11
            L247.238,33.756c5.66-4.848,13.874-4.849,19.53-0.002l209.994,179.795C483.04,218.929,483.767,228.419,478.389,234.694z"/>
    </g>
</g>
<g>
    <g>
        <path d="M302.002,179.938h-91.996c-8.284,0-14.799,6.716-14.799,14.999v89.996c0,8.284,6.516,14.999,14.799,14.999h91.996
            c8.284,0,14.999-6.716,14.999-14.999v-89.996C317.002,186.653,310.286,179.938,302.002,179.938z M287.203,269.935h-62.198v-59.998
            h62.198V269.935z" fill="currentcolor"/>
    </g>
</g>
<g>
    <g>
        <circle cx="271.999" cy="406.934" r="14.999" fill="currentcolor"/>
    </g>
</g>
<g>
</g>
<g>
</g>
<g>
</g>
<g>
</g>
<g>
</g>
<g>
</g>
<g>
</g>
<g>
</g>
<g>
</g>
<g>
</g>
<g>
</g>
<g>
</g>
<g>
</g>
<g>
</g>
<g>
</g>
</symbol>





</svg>
