<?xml version="1.0" encoding="UTF-8"?>
<svg xmlns="http://www.w3.org/2000/svg" style="display: none;">
    <!--trash-->
    <symbol id="trash" viewBox="0 0 24 24">
        <g stroke="blue" stroke-width="0.2" fill="none" fill-rule="evenodd">
            <rect id="bound" x="0" y="0" width="24" height="24"></rect>
            <path class="redsvg" d="M6,8 L6,20.5 C6,21.3284271 6.67157288,22 7.5,22 L16.5,22 C17.3284271,22 18,21.3284271 18,20.5 L18,8 L6,8 Z" opacity="0.3"></path>
            <path d="M14,4.5 L14,4 C14,3.44771525 13.5522847,3 13,3 L11,3 C10.4477153,3 10,3.44771525 10,4 L10,4.5 L5.5,4.5 C5.22385763,4.5 5,4.72385763 5,5 L5,5.5 C5,5.77614237 5.22385763,6 5.5,6 L18.5,6 C18.7761424,6 19,5.77614237 19,5.5 L19,5 C19,4.72385763 18.7761424,4.5 18.5,4.5 L14,4.5 Z"></path>
        </g>
    </symbol>
 
    <!--ducless-ac-->
    <symbol id="ductless-ac" viewBox="0 0 24 24">
        <g stroke="none" stroke-width="1" fill="none" fill-rule="evenodd">
            <rect id="bound" x="0" y="0" width="24" height="24"></rect>
            <path d="M3,3 L21,3 C21.5522847,3 22,3.44771525 22,4 L22,11 C22,11.5522847 21.5522847,12 21,12 L3,12 C2.44771525,12 2,11.5522847 2,11 L2,4 C2,3.44771525 2.44771525,3 3,3 Z M5,8 C4.44771525,8 4,8.44771525 4,9 C4,9.55228475 4.44771525,10 5,10 L19,10 C19.5522847,10 20,9.55228475 20,9 C20,8.44771525 19.5522847,8 19,8 L5,8 Z" id="Combined-Shape" fill="#000000"></path>
            <path class="moving-air" d="M17.2914283,14.2943612 L18.7085717,15.7056388 C17.6611931,16.7573706 17.6647221,18.4590358 18.7164539,19.5064144 C18.8065164,19.5961041 18.902828,19.6792918 19.0046636,19.755351 L19.5984004,20.1988028 L18.4015996,21.8011972 L17.8078628,21.3577454 C17.6302443,21.2250852 17.4622605,21.0799918 17.3051762,20.9235577 C15.4707777,19.096752 15.4646226,16.1287596 17.2914283,14.2943612 Z M11.2914283,15.2943612 L12.7085717,16.7056388 C11.6611931,17.7573706 11.6647221,19.4590358 12.7164539,20.5064144 C12.8065164,20.5961041 12.902828,20.6792918 13.0046636,20.755351 L13.5984004,21.1988028 L12.4015996,22.8011972 L11.8078628,22.3577454 C11.6302443,22.2250852 11.4622605,22.0799918 11.3051762,21.9235577 C9.47077775,20.096752 9.4646226,17.1287596 11.2914283,15.2943612 Z M5.29142832,14.2943612 L6.70857168,15.7056388 C5.66119311,16.7573706 5.66472209,18.4590358 6.71645389,19.5064144 C6.80651638,19.5961041 6.90282804,19.6792918 7.00466363,19.755351 L7.59840039,20.1988028 L6.40159961,21.8011972 L5.80786284,21.3577454 C5.63024431,21.2250852 5.46226047,21.0799918 5.30517622,20.9235577 C3.47077775,19.096752 3.4646226,16.1287596 5.29142832,14.2943612 Z" id="Combined-Shape" fill="#000000" fill-rule="nonzero" opacity="0.3"></path>
        </g>
    </symbol>

  <!--menu-toggle-->
    <symbol id="menu-toggle" viewBox="0 0 24 24">

    </symbol>
    <!--hamburger-menu-->
    <symbol id="hamburger-menu" viewBox="0 0 24 24">
       <path d="M4 6H20V8H4zM4 11H20V13H4zM4 16H20V18H4z"/>
    </symbol>
    <!--load-collection-->
    <symbol id="load-collection" viewBox="0 0 24 24">
        <g stroke="none" stroke-width="1" fill="none" fill-rule="evenodd">
            <rect id="bound" x="0" y="0" width="24" height="24"></rect>
            <path d="M10.5,5 L19.5,5 C20.3284271,5 21,5.67157288 21,6.5 C21,7.32842712 20.3284271,8 19.5,8 L10.5,8 C9.67157288,8 9,7.32842712 9,6.5 C9,5.67157288 9.67157288,5 10.5,5 Z M10.5,10 L19.5,10 C20.3284271,10 21,10.6715729 21,11.5 C21,12.3284271 20.3284271,13 19.5,13 L10.5,13 C9.67157288,13 9,12.3284271 9,11.5 C9,10.6715729 9.67157288,10 10.5,10 Z M10.5,15 L19.5,15 C20.3284271,15 21,15.6715729 21,16.5 C21,17.3284271 20.3284271,18 19.5,18 L10.5,18 C9.67157288,18 9,17.3284271 9,16.5 C9,15.6715729 9.67157288,15 10.5,15 Z" id="Combined-Shape" fill="currentcolor"></path>
            <path d="M5.5,8 C4.67157288,8 4,7.32842712 4,6.5 C4,5.67157288 4.67157288,5 5.5,5 C6.32842712,5 7,5.67157288 7,6.5 C7,7.32842712 6.32842712,8 5.5,8 Z M5.5,13 C4.67157288,13 4,12.3284271 4,11.5 C4,10.6715729 4.67157288,10 5.5,10 C6.32842712,10 7,10.6715729 7,11.5 C7,12.3284271 6.32842712,13 5.5,13 Z M5.5,18 C4.67157288,18 4,17.3284271 4,16.5 C4,15.6715729 4.67157288,15 5.5,15 C6.32842712,15 7,15.6715729 7,16.5 C7,17.3284271 6.32842712,18 5.5,18 Z" id="Combined-Shape" fill="currentcolor" ></path>
        </g>
    </symbol>
    
    <!--add-to-collection-->
    <symbol id="add-to-collection" viewBox="0 0 24 24">
        <!--g stroke="none" stroke-width="1" fill="currentcolor"  fill-rule="evenodd">
            <rect id="Rectangle-185"   x="4" y="11" width="16" height="2" rx="1"></rect>
            <rect id="Rectangle-185-Copy"  opacity="0.3" transform="translate(12.000000, 12.000000) rotate(-270.000000) translate(-12.000000, -12.000000) " x="4" y="11" width="16" height="2" rx="1"></rect>
        </g-->  
        <path fill="currentcolor" d="M19 11L13 11 13 5 11 5 11 11 5 11 5 13 11 13 11 19 13 19 13 13 19 13z"/>
    </symbol>
    

    <!--angle-double-left-->
    <symbol id="angle-double-left" viewBox="0 0 24 24">
        <g stroke="none" stroke-width="1" fill="none" fill-rule="evenodd">
            <polygon id="Shape" points="0 0 24 0 24 24 0 24"></polygon>
            <path d="M5.29288961,6.70710318 C4.90236532,6.31657888 4.90236532,5.68341391 5.29288961,5.29288961 C5.68341391,4.90236532 6.31657888,4.90236532 6.70710318,5.29288961 L12.7071032,11.2928896 C13.0856821,11.6714686 13.0989277,12.281055 12.7371505,12.675721 L7.23715054,18.675721 C6.86395813,19.08284 6.23139076,19.1103429 5.82427177,18.7371505 C5.41715278,18.3639581 5.38964985,17.7313908 5.76284226,17.3242718 L10.6158586,12.0300721 L5.29288961,6.70710318 Z" id="Path-94" fill="currentcolor" fill-rule="nonzero" transform="translate(8.999997, 11.999999) scale(-1, 1) translate(-8.999997, -11.999999) "></path>
            <path d="M10.7071009,15.7071068 C10.3165766,16.0976311 9.68341162,16.0976311 9.29288733,15.7071068 C8.90236304,15.3165825 8.90236304,14.6834175 9.29288733,14.2928932 L15.2928873,8.29289322 C15.6714663,7.91431428 16.2810527,7.90106866 16.6757187,8.26284586 L22.6757187,13.7628459 C23.0828377,14.1360383 23.1103407,14.7686056 22.7371482,15.1757246 C22.3639558,15.5828436 21.7313885,15.6103465 21.3242695,15.2371541 L16.0300699,10.3841378 L10.7071009,15.7071068 Z" id="Path-94" fill="currentcolor" fill-rule="nonzero" opacity="0.3" transform="translate(15.999997, 11.999999) scale(-1, 1) rotate(-270.000000) translate(-15.999997, -11.999999) "></path>
        </g>
    </symbol>
    
    <!--angle-double-right-->
    <symbol id="angle-double-right" viewBox="0 0 24 24">
        <g stroke="none" stroke-width="1" fill="none" fill-rule="evenodd">
            <polygon id="Shape" points="0 0 24 0 24 24 0 24"></polygon>
            <path d="M12.2928955,6.70710318 C11.9023712,6.31657888 11.9023712,5.68341391 12.2928955,5.29288961 C12.6834198,4.90236532 13.3165848,4.90236532 13.7071091,5.29288961 L19.7071091,11.2928896 C20.085688,11.6714686 20.0989336,12.281055 19.7371564,12.675721 L14.2371564,18.675721 C13.863964,19.08284 13.2313966,19.1103429 12.8242777,18.7371505 C12.4171587,18.3639581 12.3896557,17.7313908 12.7628481,17.3242718 L17.6158645,12.0300721 L12.2928955,6.70710318 Z" id="Path-94" fill="currentcolor" fill-rule="nonzero"></path>
            <path d="M3.70710678,15.7071068 C3.31658249,16.0976311 2.68341751,16.0976311 2.29289322,15.7071068 C1.90236893,15.3165825 1.90236893,14.6834175 2.29289322,14.2928932 L8.29289322,8.29289322 C8.67147216,7.91431428 9.28105859,7.90106866 9.67572463,8.26284586 L15.6757246,13.7628459 C16.0828436,14.1360383 16.1103465,14.7686056 15.7371541,15.1757246 C15.3639617,15.5828436 14.7313944,15.6103465 14.3242754,15.2371541 L9.03007575,10.3841378 L3.70710678,15.7071068 Z" id="Path-94" fill="currentcolor" fill-rule="nonzero" opacity="0.3" transform="translate(9.000003, 11.999999) rotate(-270.000000) translate(-9.000003, -11.999999) "></path>
        </g>
    </symbol>

    <!--angle-right-->
    <symbol id="angle-right" viewBox="0 0 24 24">
        <g stroke="none" stroke-width="1" fill="none" fill-rule="evenodd">
            <polygon id="Shape" points="0 0 24 0 24 24 0 24"></polygon>
            <path d="M6.70710678,15.7071068 C6.31658249,16.0976311 5.68341751,16.0976311 5.29289322,15.7071068 C4.90236893,15.3165825 4.90236893,14.6834175 5.29289322,14.2928932 L11.2928932,8.29289322 C11.6714722,7.91431428 12.2810586,7.90106866 12.6757246,8.26284586 L18.6757246,13.7628459 C19.0828436,14.1360383 19.1103465,14.7686056 18.7371541,15.1757246 C18.3639617,15.5828436 17.7313944,15.6103465 17.3242754,15.2371541 L12.0300757,10.3841378 L6.70710678,15.7071068 Z" id="Path-94" fill="currentcolor" fill-rule="nonzero" transform="translate(12.000003, 11.999999) rotate(-270.000000) translate(-12.000003, -11.999999) "></path>
        </g>
    </symbol>


    <!--angle-left-->
    <symbol id="angle-left" viewBox="0 0 24 24">
        <g  stroke="none" stroke-width="1" fill="none" fill-rule="evenodd">
            <polygon id="Shape" points="0 0 24 0 24 24 0 24"></polygon>
            <path d="M6.70710678,15.7071068 C6.31658249,16.0976311 5.68341751,16.0976311 5.29289322,15.7071068 C4.90236893,15.3165825 4.90236893,14.6834175 5.29289322,14.2928932 L11.2928932,8.29289322 C11.6714722,7.91431428 12.2810586,7.90106866 12.6757246,8.26284586 L18.6757246,13.7628459 C19.0828436,14.1360383 19.1103465,14.7686056 18.7371541,15.1757246 C18.3639617,15.5828436 17.7313944,15.6103465 17.3242754,15.2371541 L12.0300757,10.3841378 L6.70710678,15.7071068 Z" id="Path-94" fill="currentcolor" fill-rule="nonzero" transform="translate(12.000003, 11.999999) scale(-1, 1) rotate(-270.000000) translate(-12.000003, -11.999999) "></path>
        </g>
    </symbol>

    <!--angle-down-->
<symbol viewBox="0 0 24 24" id="angle-down">
    <title>Angle-down</title>
    <g stroke="none" stroke-width="1" fill="none" fill-rule="evenodd">
        <polygon id="Shape" points="0 0 24 0 24 24 0 24"></polygon>
        <path d="M6.70710678,15.7071068 C6.31658249,16.0976311 5.68341751,16.0976311 5.29289322,15.7071068 C4.90236893,15.3165825 4.90236893,14.6834175 5.29289322,14.2928932 L11.2928932,8.29289322 C11.6714722,7.91431428 12.2810586,7.90106866 12.6757246,8.26284586 L18.6757246,13.7628459 C19.0828436,14.1360383 19.1103465,14.7686056 18.7371541,15.1757246 C18.3639617,15.5828436 17.7313944,15.6103465 17.3242754,15.2371541 L12.0300757,10.3841378 L6.70710678,15.7071068 Z" id="Path-94" fill="currentcolor" fill-rule="nonzero" transform="translate(12.000003, 11.999999) rotate(-180.000000) translate(-12.000003, -11.999999) "></path>
    </g>
</symbol>
    <!--arrow-to-up-->
    <symbol viewBox="0 0 24 24" xmlns="http://www.w3.org/2000/svg" id="arrow-to-up">
        <title>Stockholm-icons / Navigation / Arrow-to-up</title>
        <g fill="none" fill-rule="evenodd">
          <path d="M0 0h24v24H0z"></path>
          <rect fill="#000" opacity=".3" x="11" y="7" width="2" height="14" rx="1"></rect>
          <path d="M6.707 14.707a1 1 0 1 1-1.414-1.414l6-6a1 1 0 0 1 1.383-.03l6 5.5a1 1 0 1 1-1.352 1.474L12.03 9.384l-5.323 5.323z" fill="#000" fill-rule="nonzero"></path>
          <rect fill="#000" opacity=".3" x="3" y="3" width="18" height="2" rx="1"></rect>
        </g>
  </symbol>

    <!--Back-->
    <symbol width="24" height="24" viewBox="0 0 24 24" xmlns="http://www.w3.org/2000/svg" id="back">
        <title>Back</title>
        <path fill="currentcolor"  d="M12.707 17.293L8.414 13 18 13 18 11 8.414 11 12.707 6.707 11.293 5.293 4.586 12 11.293 18.707z"/>
    </symbol>

    <!--close-->
    <symbol viewBox="0 0 24 24" xmlns="http://www.w3.org/2000/svg" id="close">
        <title>Stockholm-icons / Navigation / Close</title>
        <path fill="currentcolor" d="M16.192 6.344L11.949 10.586 7.707 6.344 6.293 7.758 10.535 12 6.293 16.242 7.707 17.656 11.949 13.414 16.192 17.656 17.606 16.242 13.364 12 17.606 7.758z"/>
    </symbol>

    <symbol viewBox="0 0 24 24" width="20" height="20" version="1.1" id="arrow-right">
        <title>Next</title>
        <path d="M11.293 17.293L12.707 18.707 19.414 12 12.707 5.293 11.293 6.707 15.586 11 6 11 6 13 15.586 13z" fill="#fff"/>
    </symbol>

    <symbol viewBox="0 0 24 24" id="error">
        <title>Error</title>
        <g stroke="none" stroke-width="1" fill="none" fill-rule="evenodd">
            <rect id="bound" x="0" y="0" width="24" height="24"></rect>
            <circle id="Oval-5" fill="currentcolor" opacity="0.3" cx="12" cy="12" r="10"></circle>
            <rect id="Rectangle-9" fill="currentcolor" x="11" y="7" width="2" height="8" rx="1"></rect>
            <rect id="Rectangle-9-Copy" fill="currentcolor" x="11" y="16" width="2" height="2" rx="1"></rect>
        </g>
    </symbol>
    
    <symbol viewBox="0 0 24 24" id="warning">
        <title>Warning</title>
        <path fill="currentcolor" d="M12.884,2.532c-0.346-0.654-1.422-0.654-1.768,0l-9,17c-0.164,0.31-0.154,0.684,0.027,0.983C2.324,20.816,2.649,21,3,21h18 c0.351,0,0.676-0.184,0.856-0.484c0.182-0.3,0.191-0.674,0.027-0.983L12.884,2.532z M13,18h-2v-2h2V18z M11,14V9h2l0.001,5H11z"/>
    </symbol>

    <symbol viewBox="0 0 24 24" id="informative">
        <title>Informative</title>
        <path fill="currentcolor" d="M12,2C6.486,2,2,6.486,2,12s4.486,10,10,10s10-4.486,10-10S17.514,2,12,2z M13,17h-2v-6h2V17z M13,9h-2V7h2V9z"/>
    </symbol>

    <symbol viewBox="0 0 24 24" id="edit">
        <title>Edit</title>
        <g stroke="none" stroke-width="1" fill="none" fill-rule="evenodd">
            <rect id="bound" x="0" y="0" width="24" height="24"></rect>
            <path d="M8,17.9148182 L8,5.96685884 C8,5.56391781 8.16211443,5.17792052 8.44982609,4.89581508 L10.965708,2.42895648 C11.5426798,1.86322723 12.4640974,1.85620921 13.0496196,2.41308426 L15.5337377,4.77566479 C15.8314604,5.0588212 16,5.45170806 16,5.86258077 L16,17.9148182 C16,18.7432453 15.3284271,19.4148182 14.5,19.4148182 L9.5,19.4148182 C8.67157288,19.4148182 8,18.7432453 8,17.9148182 Z" id="Path-11" fill="#000000" fill-rule="nonzero" transform="translate(12.000000, 10.707409) rotate(-135.000000) translate(-12.000000, -10.707409) "></path>
            <rect id="Rectangle" fill="#000000" opacity="0.3" x="5" y="20" width="15" height="2" rx="1"></rect>
        </g>
    </symbol>

    <symbol viewBox="0 0 24 24" id="user">
         <title>User</title>
        <g stroke="none" stroke-width="1" fill="none" fill-rule="evenodd">
            <polygon id="Shape" points="0 0 24 0 24 24 0 24"></polygon>
            <path d="M12,11 C9.790861,11 8,9.209139 8,7 C8,4.790861 9.790861,3 12,3 C14.209139,3 16,4.790861 16,7 C16,9.209139 14.209139,11 12,11 Z" id="Mask" fill="currentcolor" fill-rule="nonzero" opacity="0.3"></path>
            <path d="M3.00065168,20.1992055 C3.38825852,15.4265159 7.26191235,13 11.9833413,13 C16.7712164,13 20.7048837,15.2931929 20.9979143,20.2 C21.0095879,20.3954741 20.9979143,21 20.2466999,21 C16.541124,21 11.0347247,21 3.72750223,21 C3.47671215,21 2.97953825,20.45918 3.00065168,20.1992055 Z" id="Mask-Copy" fill="currentcolor" fill-rule="nonzero"></path>
        </g>
    </symbol>

    <symbol width="24" height="24" viewBox="0 0 24 24" id="download">
        <title>Download</title>
        <path fill="currentcolor" d="M18.948,11.112C18.511,7.67,15.563,5,12.004,5c-2.756,0-5.15,1.611-6.243,4.15C3.613,9.792,2.004,11.82,2.004,14 c0,2.757,2.243,5,5,5h1v-2h-1c-1.654,0-3-1.346-3-3c0-1.404,1.199-2.757,2.673-3.016l0.581-0.102l0.192-0.558 C8.153,8.273,9.898,7,12.004,7c2.757,0,5,2.243,5,5v1h1c1.103,0,2,0.897,2,2c0,1.103-0.897,2-2,2h-2v2h2c2.206,0,4-1.794,4-4 C22.004,13.119,20.699,11.538,18.948,11.112z"/><path fill="currentcolor" d="M13.004 14L13.004 10 11.004 10 11.004 14 8.004 14 12.004 19 16.004 14z"/>     
    </symbol>

    <symbol width="24" height="24" viewBox="0 0 24 24" id="share">
        <title>Share</title>
        <path fill="currentcolor" d="M3,12c0,1.654,1.346,3,3,3c0.794,0,1.512-0.315,2.049-0.82l5.991,3.424C14.022,17.734,14,17.864,14,18c0,1.654,1.346,3,3,3 s3-1.346,3-3s-1.346-3-3-3c-0.794,0-1.512,0.315-2.049,0.82L8.96,12.397C8.978,12.266,9,12.136,9,12s-0.022-0.266-0.04-0.397 l5.991-3.423C15.488,8.685,16.206,9,17,9c1.654,0,3-1.346,3-3s-1.346-3-3-3s-3,1.346-3,3c0,0.136,0.022,0.266,0.04,0.397 L8.049,9.82C7.512,9.315,6.794,9,6,9C4.346,9,3,10.346,3,12z"/>    
    </symbol>

    <symbol width="24" height="24" viewBox="0 0 24 24" id="view-HTML">
        <title>View HTML</title>
        <path fill="currentcolor" d="M14,2H6C4.896,2,4,2.896,4,4v16c0,1.104,0.896,2,2,2h12c1.104,0,2-0.896,2-2V8L14,2z M13,4l5,5h-4	c-0.553,0-1,0-1,0V4z M8.531,18h-0.76v-1.411H6.515V18H5.748v-3.373h0.767v1.296h1.257v-1.296h0.76V18z M11.531,15.268H10.61V18	H9.844v-2.732H8.939v-0.641h2.592V15.268z M14.818,18l-0.05-1.291c-0.017-0.405-0.03-0.896-0.03-1.387h-0.016	c-0.104,0.431-0.245,0.911-0.375,1.307l-0.41,1.316h-0.597l-0.359-1.307c-0.111-0.396-0.226-0.876-0.306-1.316h-0.011	c-0.021,0.456-0.034,0.976-0.059,1.396L12.545,18H11.84l0.216-3.373h1.015l0.331,1.126c0.104,0.391,0.21,0.811,0.284,1.206h0.017	c0.095-0.391,0.209-0.836,0.32-1.211l0.359-1.121h0.996L15.563,18H14.818z M18.252,18h-2.108v-3.373h0.767v2.732h1.342V18z"/>    
    </symbol>
<symbol viewBox="0 0 24 24" id="spinning-wheel">
    <title>Spinning Wheel</title>
    <g stroke="none" stroke-width="1" fill="none" fill-rule="evenodd">
        <rect id="bound" x="0" y="0" width="16" height="16"></rect>
        <path d="M19.5,10.5 L21,10.5 C21.8284271,10.5 22.5,11.1715729 22.5,12 C22.5,12.8284271 21.8284271,13.5 21,13.5 L19.5,13.5 C18.6715729,13.5 18,12.8284271 18,12 C18,11.1715729 18.6715729,10.5 19.5,10.5 Z M16.0606602,5.87132034 L17.1213203,4.81066017 C17.7071068,4.22487373 18.6568542,4.22487373 19.2426407,4.81066017 C19.8284271,5.39644661 19.8284271,6.34619408 19.2426407,6.93198052 L18.1819805,7.99264069 C17.5961941,8.57842712 16.6464466,8.57842712 16.0606602,7.99264069 C15.4748737,7.40685425 15.4748737,6.45710678 16.0606602,5.87132034 Z M16.0606602,18.1819805 C15.4748737,17.5961941 15.4748737,16.6464466 16.0606602,16.0606602 C16.6464466,15.4748737 17.5961941,15.4748737 18.1819805,16.0606602 L19.2426407,17.1213203 C19.8284271,17.7071068 19.8284271,18.6568542 19.2426407,19.2426407 C18.6568542,19.8284271 17.7071068,19.8284271 17.1213203,19.2426407 L16.0606602,18.1819805 Z M3,10.5 L4.5,10.5 C5.32842712,10.5 6,11.1715729 6,12 C6,12.8284271 5.32842712,13.5 4.5,13.5 L3,13.5 C2.17157288,13.5 1.5,12.8284271 1.5,12 C1.5,11.1715729 2.17157288,10.5 3,10.5 Z M12,1.5 C12.8284271,1.5 13.5,2.17157288 13.5,3 L13.5,4.5 C13.5,5.32842712 12.8284271,6 12,6 C11.1715729,6 10.5,5.32842712 10.5,4.5 L10.5,3 C10.5,2.17157288 11.1715729,1.5 12,1.5 Z M12,18 C12.8284271,18 13.5,18.6715729 13.5,19.5 L13.5,21 C13.5,21.8284271 12.8284271,22.5 12,22.5 C11.1715729,22.5 10.5,21.8284271 10.5,21 L10.5,19.5 C10.5,18.6715729 11.1715729,18 12,18 Z M4.81066017,4.81066017 C5.39644661,4.22487373 6.34619408,4.22487373 6.93198052,4.81066017 L7.99264069,5.87132034 C8.57842712,6.45710678 8.57842712,7.40685425 7.99264069,7.99264069 C7.40685425,8.57842712 6.45710678,8.57842712 5.87132034,7.99264069 L4.81066017,6.93198052 C4.22487373,6.34619408 4.22487373,5.39644661 4.81066017,4.81066017 Z M4.81066017,19.2426407 C4.22487373,18.6568542 4.22487373,17.7071068 4.81066017,17.1213203 L5.87132034,16.0606602 C6.45710678,15.4748737 7.40685425,15.4748737 7.99264069,16.0606602 C8.57842712,16.6464466 8.57842712,17.5961941 7.99264069,18.1819805 L6.93198052,19.2426407 C6.34619408,19.8284271 5.39644661,19.8284271 4.81066017,19.2426407 Z" id="Oval" fill="currentcolor" fill-rule="nonzero"></path>
    </g>
</symbol>

</svg>
